<?xml version="1.0" encoding="UTF-8" standalone="no"?>
<!DOCTYPE svg PUBLIC "-//W3C//DTD SVG 1.1//EN" "http://www.w3.org/Graphics/SVG/1.1/DTD/svg11.dtd">
<svg width="100%" height="100%" viewBox="0 0 1265 237" version="1.1" xmlns="http://www.w3.org/2000/svg" xmlns:xlink="http://www.w3.org/1999/xlink" xml:space="preserve" xmlns:serif="http://www.serif.com/" style="fill-rule:evenodd;clip-rule:evenodd;stroke-linejoin:round;stroke-miterlimit:2;">
    <g transform="matrix(1,0,0,1,-708.661,-118.11)">
        <g transform="matrix(1,0,0,1,-1434.32,-1242.14)">
            <g transform="matrix(164.887,0,0,164.887,2424,1535.43)">
                <path d="M0.332,-0.582C0.301,-0.582 0.278,-0.588 0.264,-0.601C0.25,-0.614 0.243,-0.631 0.243,-0.652L0.243,-0.681C0.243,-0.728 0.273,-0.751 0.332,-0.751C0.391,-0.751 0.421,-0.728 0.421,-0.681L0.421,-0.652C0.421,-0.631 0.414,-0.614 0.4,-0.601C0.386,-0.588 0.363,-0.582 0.332,-0.582ZM0.258,-0.115L0.258,-0.401L0.094,-0.401L0.094,-0.516L0.406,-0.516L0.406,-0.115L0.558,-0.115L0.558,-0L0.094,-0L0.094,-0.115L0.258,-0.115Z" style="fill:white;fill-rule:nonzero;"/>
            </g>
            <g transform="matrix(164.887,0,0,164.887,2522.93,1535.43)">
                <path d="M0.065,-0.516L0.213,-0.516L0.213,-0.422L0.219,-0.422C0.232,-0.454 0.25,-0.48 0.275,-0.499C0.3,-0.518 0.332,-0.528 0.371,-0.528C0.422,-0.528 0.462,-0.511 0.493,-0.477C0.524,-0.443 0.539,-0.395 0.539,-0.334L0.539,-0L0.391,-0L0.391,-0.314C0.391,-0.347 0.384,-0.371 0.369,-0.388C0.354,-0.405 0.333,-0.414 0.304,-0.414C0.279,-0.414 0.258,-0.407 0.24,-0.394C0.222,-0.381 0.213,-0.362 0.213,-0.339L0.213,-0L0.065,-0L0.065,-0.516Z" style="fill:white;fill-rule:nonzero;"/>
            </g>
            <g transform="matrix(164.887,0,0,164.887,2621.86,1535.43)">
                <path d="M0.294,0.012C0.237,0.012 0.188,0.003 0.145,-0.014C0.102,-0.031 0.07,-0.055 0.049,-0.085L0.132,-0.162C0.175,-0.115 0.229,-0.092 0.295,-0.092C0.324,-0.092 0.347,-0.097 0.364,-0.106C0.381,-0.115 0.389,-0.129 0.389,-0.147C0.389,-0.16 0.384,-0.17 0.373,-0.176C0.363,-0.183 0.347,-0.188 0.325,-0.191L0.242,-0.204C0.191,-0.212 0.151,-0.228 0.121,-0.251C0.092,-0.274 0.077,-0.309 0.077,-0.355C0.077,-0.409 0.098,-0.451 0.139,-0.482C0.181,-0.513 0.239,-0.528 0.313,-0.528C0.411,-0.528 0.483,-0.502 0.528,-0.449L0.454,-0.365C0.438,-0.383 0.418,-0.397 0.393,-0.408C0.368,-0.419 0.34,-0.424 0.308,-0.424C0.28,-0.424 0.259,-0.419 0.244,-0.41C0.229,-0.401 0.222,-0.389 0.222,-0.372C0.222,-0.358 0.227,-0.348 0.237,-0.341C0.248,-0.335 0.264,-0.33 0.286,-0.327L0.368,-0.314C0.419,-0.306 0.46,-0.29 0.489,-0.267C0.519,-0.244 0.534,-0.209 0.534,-0.163C0.534,-0.109 0.513,-0.066 0.471,-0.035C0.429,-0.004 0.37,0.012 0.294,0.012Z" style="fill:white;fill-rule:nonzero;"/>
            </g>
            <g transform="matrix(164.887,0,0,164.887,2720.8,1535.43)">
                <path d="M0.34,-0C0.288,-0 0.249,-0.013 0.222,-0.04C0.195,-0.067 0.182,-0.104 0.182,-0.149L0.182,-0.401L0.042,-0.401L0.042,-0.516L0.133,-0.516C0.155,-0.516 0.171,-0.52 0.18,-0.529C0.189,-0.538 0.194,-0.554 0.194,-0.577L0.194,-0.698L0.33,-0.698L0.33,-0.516L0.531,-0.516L0.531,-0.401L0.33,-0.401L0.33,-0.115L0.531,-0.115L0.531,-0L0.34,-0Z" style="fill:white;fill-rule:nonzero;"/>
            </g>
            <g transform="matrix(164.887,0,0,164.887,2819.73,1535.43)">
                <path d="M0.193,-0.115L0.193,-0.401L0.074,-0.401L0.074,-0.516L0.341,-0.516L0.341,-0.382L0.348,-0.382C0.361,-0.421 0.38,-0.453 0.407,-0.478C0.434,-0.503 0.47,-0.516 0.513,-0.516L0.562,-0.516L0.562,-0.38L0.452,-0.38C0.418,-0.38 0.391,-0.372 0.371,-0.357C0.351,-0.342 0.341,-0.321 0.341,-0.293L0.341,-0.115L0.511,-0.115L0.511,-0L0.074,-0L0.074,-0.115L0.193,-0.115Z" style="fill:white;fill-rule:nonzero;"/>
            </g>
            <g transform="matrix(164.887,0,0,164.887,2918.66,1535.43)">
                <path d="M0.381,-0.094C0.368,-0.062 0.349,-0.036 0.324,-0.017C0.299,0.002 0.268,0.012 0.229,0.012C0.178,0.012 0.138,-0.005 0.107,-0.039C0.076,-0.073 0.061,-0.121 0.061,-0.182L0.061,-0.516L0.209,-0.516L0.209,-0.202C0.209,-0.169 0.216,-0.144 0.231,-0.127C0.246,-0.11 0.267,-0.102 0.296,-0.102C0.321,-0.102 0.342,-0.109 0.36,-0.122C0.378,-0.135 0.387,-0.154 0.387,-0.177L0.387,-0.516L0.535,-0.516L0.535,-0L0.387,-0L0.387,-0.094L0.381,-0.094Z" style="fill:white;fill-rule:nonzero;"/>
            </g>
            <g transform="matrix(164.887,0,0,164.887,3017.59,1535.43)">
                <path d="M0.321,0.012C0.24,0.012 0.176,-0.012 0.129,-0.06C0.083,-0.108 0.06,-0.174 0.06,-0.258C0.06,-0.341 0.083,-0.407 0.129,-0.455C0.176,-0.504 0.239,-0.528 0.32,-0.528C0.423,-0.528 0.495,-0.486 0.535,-0.402L0.421,-0.34C0.411,-0.362 0.398,-0.379 0.382,-0.391C0.367,-0.404 0.346,-0.41 0.32,-0.41C0.287,-0.41 0.261,-0.4 0.242,-0.38C0.223,-0.361 0.214,-0.334 0.214,-0.3L0.214,-0.216C0.214,-0.181 0.223,-0.154 0.242,-0.135C0.261,-0.116 0.287,-0.106 0.322,-0.106C0.349,-0.106 0.37,-0.112 0.387,-0.124C0.404,-0.137 0.419,-0.155 0.431,-0.178L0.543,-0.114C0.524,-0.075 0.496,-0.044 0.459,-0.021C0.422,0.001 0.376,0.012 0.321,0.012Z" style="fill:white;fill-rule:nonzero;"/>
            </g>
            <g transform="matrix(164.887,0,0,164.887,3116.53,1535.43)">
                <path d="M0.34,-0C0.288,-0 0.249,-0.013 0.222,-0.04C0.195,-0.067 0.182,-0.104 0.182,-0.149L0.182,-0.401L0.042,-0.401L0.042,-0.516L0.133,-0.516C0.155,-0.516 0.171,-0.52 0.18,-0.529C0.189,-0.538 0.194,-0.554 0.194,-0.577L0.194,-0.698L0.33,-0.698L0.33,-0.516L0.531,-0.516L0.531,-0.401L0.33,-0.401L0.33,-0.115L0.531,-0.115L0.531,-0L0.34,-0Z" style="fill:white;fill-rule:nonzero;"/>
            </g>
            <g transform="matrix(164.887,0,0,164.887,3215.46,1535.43)">
                <path d="M0.3,0.012C0.219,0.012 0.156,-0.012 0.11,-0.06C0.064,-0.109 0.041,-0.175 0.041,-0.258C0.041,-0.341 0.064,-0.407 0.11,-0.455C0.156,-0.504 0.219,-0.528 0.3,-0.528C0.381,-0.528 0.444,-0.504 0.49,-0.455C0.536,-0.407 0.559,-0.341 0.559,-0.258C0.559,-0.175 0.536,-0.109 0.49,-0.06C0.444,-0.012 0.381,0.012 0.3,0.012ZM0.3,-0.098C0.333,-0.098 0.359,-0.108 0.378,-0.129C0.397,-0.15 0.406,-0.179 0.406,-0.217L0.406,-0.299C0.406,-0.337 0.397,-0.366 0.378,-0.387C0.359,-0.408 0.333,-0.418 0.3,-0.418C0.267,-0.418 0.241,-0.408 0.222,-0.387C0.203,-0.366 0.194,-0.337 0.194,-0.299L0.194,-0.217C0.194,-0.179 0.203,-0.15 0.222,-0.129C0.241,-0.108 0.267,-0.098 0.3,-0.098Z" style="fill:white;fill-rule:nonzero;"/>
            </g>
            <g transform="matrix(164.887,0,0,164.887,3314.39,1535.43)">
                <path d="M0.193,-0.115L0.193,-0.401L0.074,-0.401L0.074,-0.516L0.341,-0.516L0.341,-0.382L0.348,-0.382C0.361,-0.421 0.38,-0.453 0.407,-0.478C0.434,-0.503 0.47,-0.516 0.513,-0.516L0.562,-0.516L0.562,-0.38L0.452,-0.38C0.418,-0.38 0.391,-0.372 0.371,-0.357C0.351,-0.342 0.341,-0.321 0.341,-0.293L0.341,-0.115L0.511,-0.115L0.511,-0L0.074,-0L0.074,-0.115L0.193,-0.115Z" style="fill:white;fill-rule:nonzero;"/>
            </g>
        </g>
        <g transform="matrix(1,0,0,1,-590.551,-1181.1)">
            <path d="M1535.43,1358.27L1535.43,1476.38C1535.43,1508.97 1508.97,1535.43 1476.38,1535.43L1358.27,1535.43C1325.67,1535.43 1299.21,1508.97 1299.21,1476.38L1299.21,1358.27C1299.21,1325.67 1325.67,1299.21 1358.27,1299.21L1476.38,1299.21C1508.97,1299.21 1535.43,1325.67 1535.43,1358.27Z" style="fill:rgb(0,195,168);"/>
        </g>
        <g transform="matrix(1,0,0,1,-649.606,-1122.05)">
            <path d="M1462.88,1417.32L1429.46,1417.32C1422.76,1417.32 1417.32,1411.88 1417.32,1405.19L1417.32,1311.35C1417.32,1304.65 1422.76,1299.21 1429.46,1299.21L1462.88,1299.21L1462.88,1321.77L1444.14,1321.77C1441.51,1321.77 1439.38,1323.9 1439.38,1326.53L1439.38,1390.01C1439.38,1392.63 1441.51,1394.77 1444.14,1394.77L1462.88,1394.77L1462.88,1417.32ZM1489.88,1299.21L1523.3,1299.21C1530,1299.21 1535.43,1304.65 1535.43,1311.35L1535.43,1405.19C1535.43,1411.88 1530,1417.32 1523.3,1417.32L1489.88,1417.32L1489.88,1394.77L1508.62,1394.77C1511.25,1394.77 1513.38,1392.63 1513.38,1390.01L1513.38,1326.53C1513.38,1323.9 1511.25,1321.77 1508.62,1321.77L1489.88,1321.77L1489.88,1299.21Z" style="fill:white;"/>
        </g>
    </g>
</svg>
