<?xml version="1.0" encoding="UTF-8" standalone="no"?>
<!DOCTYPE svg PUBLIC "-//W3C//DTD SVG 1.1//EN" "http://www.w3.org/Graphics/SVG/1.1/DTD/svg11.dtd">
<svg width="100%" height="100%" viewBox="0 0 237 237" version="1.1" xmlns="http://www.w3.org/2000/svg" xmlns:xlink="http://www.w3.org/1999/xlink" xml:space="preserve" xmlns:serif="http://www.serif.com/" style="fill-rule:evenodd;clip-rule:evenodd;stroke-linejoin:round;stroke-miterlimit:2;">
    <g transform="matrix(1,0,0,1,-708.661,-118.11)">
        <g transform="matrix(1,0,0,1,-590.551,-1181.1)">
            <path d="M1535.43,1358.27L1535.43,1476.38C1535.43,1508.97 1508.97,1535.43 1476.38,1535.43L1358.27,1535.43C1325.67,1535.43 1299.21,1508.97 1299.21,1476.38L1299.21,1358.27C1299.21,1325.67 1325.67,1299.21 1358.27,1299.21L1476.38,1299.21C1508.97,1299.21 1535.43,1325.67 1535.43,1358.27Z" style="fill:rgb(0,195,168);"/>
        </g>
        <g transform="matrix(1,0,0,1,-649.606,-1122.05)">
            <path d="M1462.88,1417.32L1429.46,1417.32C1422.76,1417.32 1417.32,1411.88 1417.32,1405.19L1417.32,1311.35C1417.32,1304.65 1422.76,1299.21 1429.46,1299.21L1462.88,1299.21L1462.88,1321.77L1444.14,1321.77C1441.51,1321.77 1439.38,1323.9 1439.38,1326.53L1439.38,1390.01C1439.38,1392.63 1441.51,1394.77 1444.14,1394.77L1462.88,1394.77L1462.88,1417.32ZM1489.88,1299.21L1523.3,1299.21C1530,1299.21 1535.43,1304.65 1535.43,1311.35L1535.43,1405.19C1535.43,1411.88 1530,1417.32 1523.3,1417.32L1489.88,1417.32L1489.88,1394.77L1508.62,1394.77C1511.25,1394.77 1513.38,1392.63 1513.38,1390.01L1513.38,1326.53C1513.38,1323.9 1511.25,1321.77 1508.62,1321.77L1489.88,1321.77L1489.88,1299.21Z" style="fill:white;"/>
        </g>
    </g>
</svg>
